<svg width="138" height="36" viewBox="0 0 138 36" fill="none" xmlns="http://www.w3.org/2000/svg">
<path d="M11.7591 12.0488V16.1054C11.7591 16.204 11.7324 16.3008 11.6821 16.3855L11.433 16.8039C10.3076 18.6949 9.41304 20.7039 8.75928 22.7862H27.2407C26.5871 20.7037 25.6925 18.6947 24.5673 16.8036L24.3182 16.3855C24.2679 16.3008 24.2412 16.204 24.2412 16.1054V12.0488H20.3485V15.7969C20.3485 15.7972 20.3483 15.7976 20.3483 15.798C20.3483 15.7983 20.3485 15.7987 20.3485 15.799C20.3485 16.1014 20.1037 16.3465 19.8011 16.3465H16.1987C15.8961 16.3465 15.6512 16.1014 15.6512 15.799C15.6512 15.7987 15.6514 15.7983 15.6514 15.798C15.6514 15.7976 15.6512 15.7972 15.6512 15.7969V12.0488H11.7591Z" fill="white"/>
<path d="M15.3131 8.85136C15.3478 9.03661 15.3826 9.22212 15.42 9.40711C15.5563 10.0762 15.9434 10.6603 16.5112 11.0519C16.5249 11.0614 16.5319 11.0759 16.5444 11.0863C16.5726 11.1099 16.5963 11.1354 16.6193 11.1641C16.6426 11.193 16.6632 11.2215 16.6799 11.254C16.694 11.2813 16.7038 11.3093 16.7132 11.3391C16.7261 11.3797 16.7347 11.4193 16.738 11.4617C16.739 11.4755 16.7459 11.4873 16.7459 11.5013V15.2493H19.2533V11.5013C19.2533 11.4801 19.263 11.4621 19.2654 11.4416C19.2689 11.4105 19.2748 11.3815 19.2836 11.3514C19.2953 11.3109 19.31 11.2739 19.3303 11.2379C19.3435 11.2141 19.3584 11.1928 19.3753 11.171C19.4031 11.1351 19.4336 11.1045 19.4694 11.0765C19.4806 11.0677 19.4867 11.0551 19.4987 11.0471C19.6228 10.9645 19.742 10.8653 19.8639 10.7434C20.2296 10.3777 20.4777 9.91715 20.5808 9.41139C20.6199 9.21945 20.6562 9.02725 20.6926 8.83532C20.7733 8.40654 20.8572 7.96333 20.9733 7.52439L22.3703 2.2256C21.0746 1.46037 19.5742 1.02832 17.9996 1.02832C16.4475 1.02832 14.9494 1.44029 13.6245 2.22243L15.034 7.54738C15.1495 7.98391 15.2324 8.42472 15.3131 8.85136ZM19.3913 4.43982H19.8473C20.1499 4.43982 20.3948 4.68495 20.3948 4.98729C20.3948 5.28962 20.1499 5.53475 19.8473 5.53475H19.3913C19.0887 5.53475 18.8438 5.28962 18.8438 4.98729C18.8438 4.68495 19.0887 4.43982 19.3913 4.43982ZM17.7703 7.59229H18.2258C18.5284 7.59229 18.7732 7.83742 18.7732 8.13976C18.7732 8.44209 18.5284 8.68722 18.2258 8.68722H17.7703C17.4677 8.68722 17.2228 8.44209 17.2228 8.13976C17.2228 7.83742 17.4677 7.59229 17.7703 7.59229ZM16.1519 4.43982H16.608C16.9106 4.43982 17.1554 4.68495 17.1554 4.98729C17.1554 5.28962 16.9106 5.53475 16.608 5.53475H16.1519C15.8493 5.53475 15.6045 5.28962 15.6045 4.98729C15.6045 4.68495 15.8493 4.43982 16.1519 4.43982Z" fill="white"/>
<path d="M7.71924 27.4394H28.2807C28.1172 26.2377 27.8751 25.0493 27.5595 23.8809H8.44056C8.12489 25.0493 7.88277 26.2377 7.71924 27.4394Z" fill="white"/>
<path d="M28.5298 30.7137C28.5161 29.9845 28.4761 29.2574 28.4064 28.5342H7.59368C7.52388 29.2574 7.48391 29.9845 7.47021 30.7137C9.78839 30.8763 11.6585 32.6806 11.9188 34.9709H24.0812C24.3415 32.6808 26.2118 30.8765 28.5298 30.7137Z" fill="white"/>
<path d="M21.7685 9.03845C21.731 9.23573 21.6941 9.43327 21.6535 9.63002C21.5561 10.1082 21.3599 10.5534 21.0913 10.9535H24.7886C25.0912 10.9535 25.3361 11.1986 25.3361 11.501V15.2512H29.0657L27.2196 9.94973H24.4582C24.1556 9.94973 23.9107 9.7046 23.9107 9.40227C23.9107 9.09993 24.1556 8.8548 24.4582 8.8548H26.8383L26.1401 6.84992H24.3384C24.0358 6.84992 23.791 6.60479 23.791 6.30246C23.791 6.00012 24.0358 5.75499 24.3384 5.75499H25.6734C25.1024 4.62377 24.2972 3.65067 23.3285 2.88574L22.032 7.80344C21.9262 8.20468 21.8497 8.60967 21.7685 9.03845Z" fill="white"/>
<path d="M10.6642 11.5009C10.6642 11.1986 10.9091 10.9534 11.2117 10.9534H14.9022C14.6349 10.5548 14.445 10.1056 14.3473 9.62486C14.3088 9.4348 14.273 9.2442 14.2372 9.0536C14.157 8.6275 14.0811 8.22519 13.9757 7.82715L12.6673 2.88379C11.6799 3.66616 10.8858 4.6407 10.3254 5.75491H11.6725C11.9751 5.75491 12.22 6.00004 12.22 6.30237C12.22 6.60471 11.9751 6.84984 11.6725 6.84984H9.86007L9.1618 8.85472H11.5191C11.8217 8.85472 12.0666 9.09985 12.0666 9.40218C12.0666 9.70452 11.8217 9.94965 11.5191 9.94965H8.78047L6.93408 15.2511H10.6642V11.5009Z" fill="white"/>
<path d="M7.13068 31.792H6.69709C4.82801 31.792 3.27597 33.1748 3.01025 34.9715H4.45002V33.9647C4.45002 33.6624 4.69489 33.4173 4.99749 33.4173C5.30009 33.4173 5.54495 33.6624 5.54495 33.9647V34.9715H6.36615V33.9647C6.36615 33.6624 6.61102 33.4173 6.91362 33.4173C7.21622 33.4173 7.46108 33.6624 7.46108 33.9647V34.9715H8.28228V33.9647C8.28228 33.6624 8.52714 33.4173 8.82975 33.4173C9.13235 33.4173 9.37721 33.6624 9.37721 33.9647V34.9715H10.817C10.5513 33.1748 8.99976 31.792 7.13068 31.792Z" fill="white"/>
<path d="M32.9893 34.9715C32.7236 33.1748 31.1721 31.792 29.303 31.792H28.8695C27.0004 31.792 25.4483 33.1748 25.1826 34.9715H26.6224V33.9647C26.6224 33.6624 26.8673 33.4173 27.1699 33.4173C27.4725 33.4173 27.7173 33.6624 27.7173 33.9647V34.9715H28.5385V33.9647C28.5385 33.6624 28.7834 33.4173 29.086 33.4173C29.3886 33.4173 29.6334 33.6624 29.6334 33.9647V34.9715H30.4546V33.9647C30.4546 33.6624 30.6995 33.4173 31.0021 33.4173C31.3047 33.4173 31.5496 33.6624 31.5496 33.9647V34.9715H32.9893Z" fill="white"/>
<path d="M53.5312 14.9746H49.7129V13.8027C49.7129 13.2559 49.6641 12.9076 49.5664 12.7578C49.4688 12.6081 49.306 12.5332 49.0781 12.5332C48.8307 12.5332 48.6419 12.6341 48.5117 12.8359C48.388 13.0378 48.3262 13.3438 48.3262 13.7539C48.3262 14.2812 48.3978 14.6784 48.541 14.9453C48.6777 15.2122 49.0651 15.5345 49.7031 15.9121C51.5326 16.9993 52.6849 17.8913 53.1602 18.5879C53.6354 19.2845 53.873 20.4076 53.873 21.957C53.873 23.0833 53.7396 23.9134 53.4727 24.4473C53.2122 24.9811 52.7044 25.4303 51.9492 25.7949C51.194 26.153 50.3151 26.332 49.3125 26.332C48.2122 26.332 47.2715 26.1237 46.4902 25.707C45.7155 25.2904 45.2077 24.7598 44.9668 24.1152C44.7259 23.4707 44.6055 22.556 44.6055 21.3711V20.3359H48.4238V22.2598C48.4238 22.8522 48.4759 23.2331 48.5801 23.4023C48.6908 23.5716 48.8828 23.6562 49.1562 23.6562C49.4297 23.6562 49.6315 23.5488 49.7617 23.334C49.8984 23.1191 49.9668 22.8001 49.9668 22.377C49.9668 21.446 49.8398 20.8372 49.5859 20.5508C49.3255 20.2643 48.6842 19.7858 47.6621 19.1152C46.64 18.4382 45.9629 17.9466 45.6309 17.6406C45.2988 17.3346 45.0221 16.9115 44.8008 16.3711C44.5859 15.8307 44.4785 15.1406 44.4785 14.3008C44.4785 13.0898 44.6315 12.2044 44.9375 11.6445C45.25 11.0846 45.7513 10.6484 46.4414 10.3359C47.1315 10.0169 47.9648 9.85742 48.9414 9.85742C50.0091 9.85742 50.9173 10.0299 51.666 10.375C52.4212 10.7201 52.9193 11.1562 53.1602 11.6836C53.4076 12.2044 53.5312 13.0931 53.5312 14.3496V14.9746ZM59.1172 10.1895V26H55.0547V10.1895H59.1172ZM69.4688 17.5918V20.7656C69.4688 21.931 69.4102 22.7871 69.293 23.334C69.1758 23.8743 68.9251 24.3822 68.541 24.8574C68.1569 25.3262 67.6621 25.6745 67.0566 25.9023C66.4577 26.1237 65.7676 26.2344 64.9863 26.2344C64.1139 26.2344 63.375 26.14 62.7695 25.9512C62.1641 25.7559 61.6921 25.4661 61.3535 25.082C61.0215 24.6914 60.7839 24.2227 60.6406 23.6758C60.4974 23.1224 60.4258 22.2956 60.4258 21.1953V17.875C60.4258 16.6706 60.556 15.7298 60.8164 15.0527C61.0768 14.3757 61.5456 13.832 62.2227 13.4219C62.8997 13.0117 63.7656 12.8066 64.8203 12.8066C65.7057 12.8066 66.4642 12.9401 67.0957 13.207C67.7337 13.4674 68.2253 13.8092 68.5703 14.2324C68.9154 14.6556 69.1497 15.0918 69.2734 15.541C69.4036 15.9902 69.4688 16.6738 69.4688 17.5918ZM65.5234 16.6152C65.5234 15.9512 65.4876 15.5345 65.416 15.3652C65.3444 15.1895 65.1914 15.1016 64.957 15.1016C64.7227 15.1016 64.5664 15.1895 64.4883 15.3652C64.4102 15.5345 64.3711 15.9512 64.3711 16.6152V22.4648C64.3711 23.0768 64.4102 23.4772 64.4883 23.666C64.5664 23.8483 64.7194 23.9395 64.9473 23.9395C65.1816 23.9395 65.3346 23.8548 65.4062 23.6855C65.4844 23.5163 65.5234 23.1517 65.5234 22.5918V16.6152ZM74.9375 11.3125V13.3535H76.002V15.4043H74.9375V22.3379C74.9375 23.1908 74.9798 23.666 75.0645 23.7637C75.1556 23.8613 75.5234 23.9102 76.168 23.9102V26H74.5762C73.6777 26 73.0365 25.9642 72.6523 25.8926C72.2682 25.8145 71.9297 25.6419 71.6367 25.375C71.3438 25.1016 71.1615 24.7923 71.0898 24.4473C71.0182 24.0957 70.9824 23.2754 70.9824 21.9863V15.4043H70.1328V13.3535H70.9824V11.3125H74.9375ZM80.8164 13.041L80.6602 14.7402C81.2331 13.5228 82.0632 12.8783 83.1504 12.8066V17.3672C82.4277 17.3672 81.8971 17.4648 81.5586 17.6602C81.2201 17.8555 81.0117 18.1289 80.9336 18.4805C80.8555 18.8255 80.8164 19.6263 80.8164 20.8828V26H76.8711V13.041H80.8164ZM87.5645 18.0605H83.8633V17.1914C83.8633 16.1888 83.9772 15.4173 84.2051 14.877C84.4395 14.3301 84.9049 13.8483 85.6016 13.4316C86.2982 13.015 87.2031 12.8066 88.3164 12.8066C89.651 12.8066 90.6569 13.0443 91.334 13.5195C92.0111 13.9883 92.418 14.5677 92.5547 15.2578C92.6914 15.9414 92.7598 17.3542 92.7598 19.4961V26H88.9219V24.8477C88.681 25.3099 88.3685 25.6582 87.9844 25.8926C87.6068 26.1204 87.1543 26.2344 86.627 26.2344C85.9368 26.2344 85.3021 26.0423 84.7227 25.6582C84.1497 25.2676 83.8633 24.418 83.8633 23.1094V22.0449C83.8633 21.0749 84.0163 20.4141 84.3223 20.0625C84.6283 19.7109 85.3867 19.3008 86.5977 18.832C87.8932 18.3242 88.5866 17.9824 88.6777 17.8066C88.7689 17.6309 88.8145 17.2728 88.8145 16.7324C88.8145 16.0553 88.7624 15.6159 88.6582 15.4141C88.5605 15.2057 88.3945 15.1016 88.1602 15.1016C87.8932 15.1016 87.7272 15.1895 87.6621 15.3652C87.597 15.5345 87.5645 15.9805 87.5645 16.7031V18.0605ZM88.8145 19.8379C88.1829 20.3001 87.8151 20.6875 87.7109 21C87.6133 21.3125 87.5645 21.7617 87.5645 22.3477C87.5645 23.0182 87.6068 23.4512 87.6914 23.6465C87.7826 23.8418 87.9583 23.9395 88.2188 23.9395C88.4661 23.9395 88.6257 23.8646 88.6973 23.7148C88.7754 23.5586 88.8145 23.1549 88.8145 22.5039V19.8379ZM98.0137 13.041L97.9453 14.2715C98.2513 13.7832 98.6159 13.4186 99.0391 13.1777C99.4622 12.9303 99.944 12.8066 100.484 12.8066C101.539 12.8066 102.369 13.2949 102.975 14.2715C103.307 13.7832 103.681 13.4186 104.098 13.1777C104.514 12.9303 104.977 12.8066 105.484 12.8066C106.155 12.8066 106.708 12.9694 107.145 13.2949C107.587 13.6204 107.87 14.0208 107.994 14.4961C108.118 14.9648 108.18 15.7298 108.18 16.791V26H104.352V17.5527C104.352 16.446 104.312 15.7624 104.234 15.502C104.163 15.235 103.99 15.1016 103.717 15.1016C103.437 15.1016 103.255 15.2318 103.17 15.4922C103.092 15.7526 103.053 16.4395 103.053 17.5527V26H99.2246V17.7676C99.2246 16.498 99.1921 15.7363 99.127 15.4824C99.0684 15.2285 98.8991 15.1016 98.6191 15.1016C98.4434 15.1016 98.2936 15.1699 98.1699 15.3066C98.0462 15.4368 97.9779 15.5996 97.9648 15.7949C97.9518 15.9837 97.9453 16.3906 97.9453 17.0156V26H94.1172V13.041H98.0137ZM117.604 17.1816H114.107V16.4785C114.107 15.8796 114.072 15.502 114 15.3457C113.935 15.1829 113.766 15.1016 113.492 15.1016C113.271 15.1016 113.105 15.1764 112.994 15.3262C112.883 15.4694 112.828 15.6875 112.828 15.9805C112.828 16.3776 112.854 16.6706 112.906 16.8594C112.965 17.0417 113.131 17.2435 113.404 17.4648C113.684 17.6862 114.254 18.0085 115.113 18.4316C116.259 18.9915 117.011 19.5189 117.369 20.0137C117.727 20.5085 117.906 21.2279 117.906 22.1719C117.906 23.2266 117.77 24.0241 117.496 24.5645C117.223 25.0983 116.764 25.5117 116.119 25.8047C115.481 26.0911 114.71 26.2344 113.805 26.2344C112.802 26.2344 111.943 26.0781 111.227 25.7656C110.517 25.4531 110.029 25.0299 109.762 24.4961C109.495 23.9622 109.361 23.1549 109.361 22.0742V21.4492H112.857V22.2695C112.857 22.9661 112.9 23.4186 112.984 23.627C113.076 23.8353 113.251 23.9395 113.512 23.9395C113.792 23.9395 113.987 23.8711 114.098 23.7344C114.208 23.5911 114.264 23.2949 114.264 22.8457C114.264 22.2272 114.192 21.8398 114.049 21.6836C113.899 21.5273 113.134 21.0651 111.754 20.2969C110.595 19.6458 109.889 19.0566 109.635 18.5293C109.381 17.9954 109.254 17.3639 109.254 16.6348C109.254 15.5996 109.391 14.8379 109.664 14.3496C109.938 13.8548 110.4 13.474 111.051 13.207C111.708 12.9401 112.47 12.8066 113.336 12.8066C114.195 12.8066 114.924 12.9173 115.523 13.1387C116.129 13.3535 116.591 13.64 116.91 13.998C117.236 14.3561 117.431 14.6882 117.496 14.9941C117.568 15.3001 117.604 15.7786 117.604 16.4297V17.1816ZM127.896 19.75H122.789V22.5527C122.789 23.1387 122.831 23.5163 122.916 23.6855C123.001 23.8548 123.163 23.9395 123.404 23.9395C123.704 23.9395 123.902 23.8288 124 23.6074C124.104 23.3796 124.156 22.9434 124.156 22.2988V20.5898H127.896V21.5469C127.896 22.3477 127.844 22.9629 127.74 23.3926C127.643 23.8223 127.408 24.2812 127.037 24.7695C126.666 25.2578 126.194 25.6257 125.621 25.873C125.055 26.1139 124.342 26.2344 123.482 26.2344C122.649 26.2344 121.913 26.1139 121.275 25.873C120.637 25.6322 120.139 25.3034 119.781 24.8867C119.43 24.4635 119.186 24.0013 119.049 23.5C118.912 22.9922 118.844 22.2565 118.844 21.293V17.5137C118.844 16.3809 118.997 15.4889 119.303 14.8379C119.609 14.1803 120.11 13.679 120.807 13.334C121.503 12.9824 122.304 12.8066 123.209 12.8066C124.316 12.8066 125.227 13.0182 125.943 13.4414C126.666 13.8581 127.171 14.4147 127.457 15.1113C127.75 15.8014 127.896 16.7747 127.896 18.0312V19.75ZM123.941 17.6406V16.6934C123.941 16.0228 123.906 15.5898 123.834 15.3945C123.762 15.1992 123.616 15.1016 123.395 15.1016C123.121 15.1016 122.952 15.1862 122.887 15.3555C122.822 15.5182 122.789 15.9642 122.789 16.6934V17.6406H123.941ZM137.252 17.1816H133.756V16.4785C133.756 15.8796 133.72 15.502 133.648 15.3457C133.583 15.1829 133.414 15.1016 133.141 15.1016C132.919 15.1016 132.753 15.1764 132.643 15.3262C132.532 15.4694 132.477 15.6875 132.477 15.9805C132.477 16.3776 132.503 16.6706 132.555 16.8594C132.613 17.0417 132.779 17.2435 133.053 17.4648C133.333 17.6862 133.902 18.0085 134.762 18.4316C135.908 18.9915 136.66 19.5189 137.018 20.0137C137.376 20.5085 137.555 21.2279 137.555 22.1719C137.555 23.2266 137.418 24.0241 137.145 24.5645C136.871 25.0983 136.412 25.5117 135.768 25.8047C135.13 26.0911 134.358 26.2344 133.453 26.2344C132.451 26.2344 131.591 26.0781 130.875 25.7656C130.165 25.4531 129.677 25.0299 129.41 24.4961C129.143 23.9622 129.01 23.1549 129.01 22.0742V21.4492H132.506V22.2695C132.506 22.9661 132.548 23.4186 132.633 23.627C132.724 23.8353 132.9 23.9395 133.16 23.9395C133.44 23.9395 133.635 23.8711 133.746 23.7344C133.857 23.5911 133.912 23.2949 133.912 22.8457C133.912 22.2272 133.84 21.8398 133.697 21.6836C133.548 21.5273 132.783 21.0651 131.402 20.2969C130.243 19.6458 129.537 19.0566 129.283 18.5293C129.029 17.9954 128.902 17.3639 128.902 16.6348C128.902 15.5996 129.039 14.8379 129.312 14.3496C129.586 13.8548 130.048 13.474 130.699 13.207C131.357 12.9401 132.118 12.8066 132.984 12.8066C133.844 12.8066 134.573 12.9173 135.172 13.1387C135.777 13.3535 136.24 13.64 136.559 13.998C136.884 14.3561 137.079 14.6882 137.145 14.9941C137.216 15.3001 137.252 15.7786 137.252 16.4297V17.1816Z" fill="white"/>
</svg>
